#!OML:ASF H:\Not Pregnant\Project 1\Capture day 1\Session 1\non-pregnant.ASF
:FULLY-SPECIFIED
:DEGREES
220
root -4.2961 13.9844 37.602 191.536 -60.5153 -175.101
lowerback -0.251371 5.71503 6.06335
upperback -5.71087 7.66355 -0.0820141
thorax -5.00209 3.46381 -3.69547
lowerneck 5.90575 -0.574379 -27.0515
upperneck 14.0083 -10.3023 43.9785
head 7.29227 -7.09426 25.9897
rclavicle 2.65874e-015 -2.70347e-014
rhumerus -44.2829 -48.9021 -50.5103
rradius 38.7343
rwrist -26.0647
rhand -37.3766 -45.516
rfingers 7.12502
rthumb -10.4379 -75.2369
lclavicle 2.65874e-015 -2.70347e-014
lhumerus -40.3267 25.5319 41.7156
lradius 47.1365
lwrist 72.0118
lhand -26.9044 -5.62234
lfingers 7.12502
lthumb -0.327769 24.3571
rfemur -10.3386 -15.0752 24.1255
rtibia 53.1194
rfoot -26.6436 10.7085
rtoes -38.5287
lfemur -56.2281 16.3046 -33.3339
ltibia 67.2917
lfoot -29.394 6.54348
ltoes -0.611256
221
root -4.32112 14.0428 37.5752 191.387 -60.6803 -175.062
lowerback -0.347749 5.67113 5.92079
upperback -5.73773 7.5938 -0.0523668
thorax -5.00371 3.43498 -3.57855
lowerneck 5.92277 -0.610467 -27.0895
upperneck 13.9151 -10.3391 43.9976
head 7.28634 -7.11997 26.0086
rclavicle -4.82053e-015 7.15625e-015
rhumerus -43.3895 -48.0915 -51.8676
rradius 39.2211
rwrist -26.7988
rhand -37.3347 -45.5214
rfingers 7.12502
rthumb -10.3976 -75.2443
lclavicle -4.82053e-015 7.15625e-015
lhumerus -40.2216 25.2343 42.1901
lradius 47.0358
lwrist 71.6677
lhand -26.8974 -5.61486
lfingers 7.12502
lthumb -0.321012 24.3646
rfemur -9.83162 -14.8594 24.2427
rtibia 52.3124
rfoot -25.7161 10.6326
rtoes -38.5881
lfemur -55.4338 16.253 -33.092
ltibia 66.4711
lfoot -29.2388 6.42735
ltoes -0.615071
222
root -4.34618 14.1002 37.5579 191.301 -60.777 -174.968
lowerback -0.479605 5.67024 5.90908
upperback -5.8043 7.58022 -0.0646542
thorax -5.00044 3.42557 -3.57426
lowerneck 5.94759 -0.658874 -27.1059
upperneck 13.799 -10.3898 44.0183
head 7.27678 -7.15104 26.0119
rclavicle -4.38072e-014 -3.93594e-014
rhumerus -42.5331 -47.2413 -53.2101
rradius 39.7331
rwrist -27.5963
rhand -37.4122 -45.616
rfingers 7.12502
rthumb -10.4723 -75.3352
lclavicle -4.38072e-014 -3.93594e-014
lhumerus -40.0647 24.9085 42.6969
lradius 46.9075
lwrist 71.3664
lhand -26.946 -5.6679
lfingers 7.12502
lthumb -0.367909 24.3115
rfemur -9.56898 -14.634 24.3555
rtibia 51.6568
rfoot -24.7432 10.6455
rtoes -38.6002
lfemur -54.7986 16.1512 -32.8971
ltibia 65.6489
lfoot -29.0423 6.3901
ltoes -0.586673
223
root -4.37111 14.1569 37.5501 191.28 -60.8057 -174.819
lowerback -0.650654 5.70112 6.02221
upperback -5.91286 7.60698 -0.106079
thorax -4.99686 3.42771 -3.66569
lowerneck 5.96609 -0.707848 -27.1168
upperneck 13.6837 -10.439 44.0358
head 7.26697 -7.17962 26.0082
rclavicle 3.71727e-014 9.93923e-015
rhumerus -41.6772 -46.3145 -54.5639
rradius 40.2523
rwrist -28.4053
rhand -37.5691 -45.6936
rfingers 7.12502
rthumb -10.6237 -75.4051
lclavicle 3.71727e-014 9.93923e-015
lhumerus -39.9029 24.5831 43.2107
lradius 46.7583
lwrist 71.1046
lhand -27.0291 -5.77116
lfingers 7.12502
lthumb -0.448212 24.2081
rfemur -9.55425 -14.4072 24.4631
rtibia 51.1506
rfoot -23.7215 10.7424
rtoes -38.5718
lfemur -54.3277 15.9968 -32.7484
ltibia 64.8246
lfoot -28.8006 6.43771
ltoes -0.536563
224
root -4.39596 14.2137 37.5455 191.275 -60.8233 -174.645
lowerback -0.836532 5.73886 6.17711
upperback -6.03484 7.64149 -0.155885
thorax -4.99226 3.43073 -3.78734
lowerneck 5.99212 -0.759125 -27.1175
upperneck 13.5555 -10.486 44.0487
head 7.24741 -7.20484 25.9887
rclavicle -9.91439e-015 -1.19271e-015
rhumerus -40.8593 -45.342 -55.8938
rradius 40.7825
rwrist -29.1252
rhand -37.7885 -45.8201
rfingers 7.12502
rthumb -10.8353 -75.5206
lclavicle -9.91439e-015 -1.19271e-015
lhumerus -39.7325 24.2511 43.7385
lradius 46.5928
lwrist 70.8655
lhand -27.1363 -5.9062
lfingers 7.12502
lthumb -0.551747 24.0728
rfemur -9.65664 -14.2023 24.5727
rtibia 50.7616
rfoot -22.6732 10.8673
rtoes -38.4835
lfemur -53.9048 15.805 -32.6044
ltibia 63.992
lfoot -28.535 6.52574
ltoes -0.507252
